<svg xmlns="http://www.w3.org/2000/svg" xmlns:xlink="http://www.w3.org/1999/xlink" version="1.1" x="0px" y="0px" width="24px" height="24px" viewBox="0 0 24 24" enable-background="new 0 0 24 24" xml:space="preserve">
<g id="Black">
	<g>
		
			<path fill="none" stroke="#58595B" stroke-linecap="round" stroke-linejoin="round" stroke-miterlimit="10" width="23" height="4" d="M0.5 19.5 L23.5 19.5 L23.5 23.5 L0.5 23.5 Z" style="stroke-dasharray: 54, 56; stroke-dashoffset: 0;"/>
		<path fill="none" stroke="#58595B" stroke-linecap="round" stroke-linejoin="round" stroke-miterlimit="10" d="M12.5,6.5L4,6.5L2,19.5" style="stroke-dasharray: 22, 24; stroke-dashoffset: 0;"/>
		<path fill="none" stroke="#58595B" stroke-linecap="round" stroke-linejoin="round" stroke-miterlimit="10" d="M22,19.5L20,6.5L18.5,6.5" style="stroke-dasharray: 15, 17; stroke-dashoffset: 0;"/>
		
			<path fill="none" stroke="#58595B" stroke-linecap="round" stroke-linejoin="round" stroke-miterlimit="10" d="M7,14.5L8,14.5" style="stroke-dasharray: 1, 3; stroke-dashoffset: 0;"/>
		
			<path fill="none" stroke="#58595B" stroke-linecap="round" stroke-linejoin="round" stroke-miterlimit="10" d="M10,14.5L11,14.5" style="stroke-dasharray: 1, 3; stroke-dashoffset: 0;"/>
		
			<path fill="none" stroke="#58595B" stroke-linecap="round" stroke-linejoin="round" stroke-miterlimit="10" d="M13,14.5L14,14.5" style="stroke-dasharray: 1, 3; stroke-dashoffset: 0;"/>
		
			<path fill="none" stroke="#58595B" stroke-linecap="round" stroke-linejoin="round" stroke-miterlimit="10" d="M16,14.5L17,14.5" style="stroke-dasharray: 1, 3; stroke-dashoffset: 0;"/>
		
			<path fill="none" stroke="#58595B" stroke-linecap="round" stroke-linejoin="round" stroke-miterlimit="10" d="M5.5,16.5L6.5,16.5" style="stroke-dasharray: 1, 3; stroke-dashoffset: 0;"/>
		
			<path fill="none" stroke="#58595B" stroke-linecap="round" stroke-linejoin="round" stroke-miterlimit="10" d="M8.5,16.5L9.5,16.5" style="stroke-dasharray: 1, 3; stroke-dashoffset: 0;"/>
		
			<path fill="none" stroke="#58595B" stroke-linecap="round" stroke-linejoin="round" stroke-miterlimit="10" d="M11.5,16.5L12.5,16.5" style="stroke-dasharray: 1, 3; stroke-dashoffset: 0;"/>
		
			<path fill="none" stroke="#58595B" stroke-linecap="round" stroke-linejoin="round" stroke-miterlimit="10" d="M14.5,16.5L15.5,16.5" style="stroke-dasharray: 1, 3; stroke-dashoffset: 0;"/>
		
			<path fill="none" stroke="#58595B" stroke-linecap="round" stroke-linejoin="round" stroke-miterlimit="10" d="M17.5,16.5L18.5,16.5" style="stroke-dasharray: 1, 3; stroke-dashoffset: 0;"/>
		<path fill="none" stroke="#58595B" stroke-linecap="round" stroke-linejoin="round" stroke-miterlimit="10" d="M18.5,0.5L17,2L15.5,0.5L14,2L12.5,0.5L12.5,10.5L18.5,10.5Z" style="stroke-dasharray: 35, 37; stroke-dashoffset: 0;"/>
		
			<path fill="none" stroke="#58595B" stroke-linecap="round" stroke-linejoin="round" stroke-miterlimit="10" d="M14.5,4.5L16.5,4.5" style="stroke-dasharray: 2, 4; stroke-dashoffset: 0;"/>
		
			<path fill="none" stroke="#58595B" stroke-linecap="round" stroke-linejoin="round" stroke-miterlimit="10" d="M14.5,6.5L16.5,6.5" style="stroke-dasharray: 2, 4; stroke-dashoffset: 0;"/>
		
			<path fill="none" stroke="#58595B" stroke-linecap="round" stroke-linejoin="round" stroke-miterlimit="10" d="M14.5,8.5L15,8.5" style="stroke-dasharray: 1, 3; stroke-dashoffset: 0;"/>
		
			<path fill="none" stroke="#58595B" stroke-linecap="round" stroke-linejoin="round" stroke-miterlimit="10" width="4" height="3" d="M5.5 8.5 L9.5 8.5 L9.5 11.5 L5.5 11.5 Z" style="stroke-dasharray: 14, 16; stroke-dashoffset: 0;"/>
		
			<path fill="none" stroke="#58595B" stroke-linecap="round" stroke-linejoin="round" stroke-miterlimit="10" d="M10.5,21.5L13.5,21.5" style="stroke-dasharray: 3, 5; stroke-dashoffset: 0;"/>
	</g>
</g>
<g id="Frames-24px">
	<path fill="none" width="24" height="24" d="M0 0 L24 0 L24 24 L0 24 Z" style="stroke-dasharray: 96, 98; stroke-dashoffset: 0;"/>
</g>
</svg>